<svg id="Layer_1" data-name="Layer 1" xmlns="http://www.w3.org/2000/svg" viewBox="0 0 37.98 37.98"><defs><style>.cls-1{fill:red;}</style></defs><title>FB</title><path class="cls-1" d="M29.91,38H8.07A8.08,8.08,0,0,1,0,29.91V8.07A8.08,8.08,0,0,1,8.07,0H29.91A8.08,8.08,0,0,1,38,8.07V29.91A8.08,8.08,0,0,1,29.91,38ZM8.07,1.47a6.61,6.61,0,0,0-6.6,6.6V29.91a6.61,6.61,0,0,0,6.6,6.6H29.91a6.61,6.61,0,0,0,6.6-6.6V8.07a6.61,6.61,0,0,0-6.6-6.6Z"/><path class="cls-1" d="M21,28.2H16.12V19.69H14.34V15.32h1.78V13.77c0-1.82.77-4,4.42-4h3.1v4.44H21a1.16,1.16,0,0,0,0,.21v.89h2.7l-.38,4.33H21Zm-3.41-1.47h1.94V18.19H22l.12-1.4H19.53V14.43a1.44,1.44,0,0,1,1.53-1.68h1.11v-1.5H20.54c-2.6,0-2.95,1.28-2.95,2.52v3H15.81v1.43h1.78Z"/></svg>