<svg id="Layer_1" data-name="Layer 1" xmlns="http://www.w3.org/2000/svg" viewBox="0 0 45 45"><defs><style>.cls-1{fill:red;}</style></defs><title>socialne tlacidla-03</title><path class="cls-1" d="M33.41,41.5H11.57A8.08,8.08,0,0,1,3.5,33.41h0V11.57A8.09,8.09,0,0,1,11.57,3.5H33.41a8.08,8.08,0,0,1,8.09,8.07h0V33.41a8.08,8.08,0,0,1-8.07,8.09ZM11.57,5A6.62,6.62,0,0,0,5,11.57V33.41a6.62,6.62,0,0,0,6.6,6.6H33.41a6.62,6.62,0,0,0,6.6-6.6V11.57A6.62,6.62,0,0,0,33.41,5Z"/><path class="cls-1" d="M24.5,31.7H19.62V23.19H17.84V18.82h1.78V17.27c0-1.82.77-4,4.42-4h3.1v4.44H24.5a.74.74,0,0,0,0,.21v.89h2.7l-.38,4.33H24.5Zm-3.41-1.47H23V21.69H25.5l.12-1.4H23V17.93a1.45,1.45,0,0,1,1.53-1.68h1.11v-1.5H24c-2.6,0-2.95,1.28-2.95,2.52v3H19.31V21.7h1.78Z"/></svg>