<svg id="Layer_1" data-name="Layer 1" xmlns="http://www.w3.org/2000/svg" viewBox="0 0 45 45"><defs><style>.cls-1{fill:red;}</style></defs><title>socialne tlacidla-03</title><path class="cls-1" d="M33.41,41.5H11.57A8.08,8.08,0,0,1,3.5,33.41h0V11.57A8.09,8.09,0,0,1,11.57,3.5H33.41a8.08,8.08,0,0,1,8.09,8.07h0V33.41a8.08,8.08,0,0,1-8.07,8.09ZM11.57,5A6.62,6.62,0,0,0,5,11.57V33.41a6.62,6.62,0,0,0,6.6,6.6H33.41a6.62,6.62,0,0,0,6.6-6.6V11.57A6.62,6.62,0,0,0,33.41,5Z"/><path class="cls-1" d="M22.32,28.12A5.63,5.63,0,1,1,28,22.49h0A5.63,5.63,0,0,1,22.32,28.12Zm0-9.8A4.17,4.17,0,1,0,26.5,22.5a4.17,4.17,0,0,0-4.18-4.18Z"/><path class="cls-1" d="M27.67,19.24a2.1,2.1,0,1,1,2.1-2.1,2.1,2.1,0,0,1-2.1,2.1Zm0-2.74a.64.64,0,0,0-.63.64.63.63,0,0,0,.63.63.64.64,0,1,0,0-1.27Z"/><path class="cls-1" d="M22.32,25.92a3.43,3.43,0,1,1,3.43-3.43h0A3.44,3.44,0,0,1,22.32,25.92Zm0-5.4a2,2,0,1,0,2,2,2,2,0,0,0-2-2h0Z"/><path class="cls-1" d="M22.32,33.67c-3.08,0-3.45,0-4.69-.07a8.28,8.28,0,0,1-2.7-.51A5.23,5.23,0,0,1,13,31.82a5.45,5.45,0,0,1-1.27-1.94,8.28,8.28,0,0,1-.51-2.7c-.06-1.24-.07-1.61-.07-4.69s0-3.45.07-4.69a8.28,8.28,0,0,1,.51-2.7,5.67,5.67,0,0,1,3.21-3.21,8.28,8.28,0,0,1,2.7-.51c1.24-.06,1.61-.07,4.69-.07s3.45,0,4.69.07a8.28,8.28,0,0,1,2.7.51,5.69,5.69,0,0,1,3.21,3.21,8.28,8.28,0,0,1,.51,2.7c.07,1.26.07,1.63.07,4.7s0,3.44-.07,4.69h0a8.28,8.28,0,0,1-.51,2.7,5.45,5.45,0,0,1-1.27,1.94,5.23,5.23,0,0,1-1.94,1.27,8.28,8.28,0,0,1-2.7.51C25.77,33.66,25.4,33.67,22.32,33.67Zm0-20.89c-3.05,0-3.41,0-4.62.06a6.87,6.87,0,0,0-2.2.42,4.25,4.25,0,0,0-2.37,2.37,6.59,6.59,0,0,0-.42,2.24c-.05,1.21-.06,1.57-.06,4.62s0,3.41.06,4.62a6.59,6.59,0,0,0,.42,2.24,4.13,4.13,0,0,0,2.37,2.37,6.59,6.59,0,0,0,2.24.42c1.21,0,1.57.06,4.62.06s3.41,0,4.62-.06a6.59,6.59,0,0,0,2.24-.42,4.13,4.13,0,0,0,2.37-2.37A6.59,6.59,0,0,0,32,27.11c.05-1.22.06-1.59.06-4.62s0-3.4-.06-4.62a6.59,6.59,0,0,0-.42-2.24,4.25,4.25,0,0,0-2.37-2.37A6.59,6.59,0,0,0,27,12.84C25.73,12.79,25.37,12.78,22.32,12.78Z"/></svg>