<svg id="Layer_1" data-name="Layer 1" xmlns="http://www.w3.org/2000/svg" viewBox="0 0 37.98 37.98"><defs><style>.cls-1{fill:red;}</style></defs><title>socialne tlacidla</title><path class="cls-1" d="M29.91,38H8.07A8.08,8.08,0,0,1,0,29.91V8.07A8.08,8.08,0,0,1,8.07,0H29.91A8.08,8.08,0,0,1,38,8.07V29.91A8.08,8.08,0,0,1,29.91,38ZM8.07,1.47a6.61,6.61,0,0,0-6.6,6.6V29.91a6.61,6.61,0,0,0,6.6,6.6H29.91a6.61,6.61,0,0,0,6.6-6.6V8.07a6.61,6.61,0,0,0-6.6-6.6Z"/><path class="cls-1" d="M18.82,24.62A5.63,5.63,0,1,1,24.45,19,5.63,5.63,0,0,1,18.82,24.62Zm0-9.8A4.17,4.17,0,1,0,23,19,4.17,4.17,0,0,0,18.82,14.82Z"/><path class="cls-1" d="M24.17,15.74a2.1,2.1,0,1,1,2.1-2.1A2.1,2.1,0,0,1,24.17,15.74Zm0-2.74a.64.64,0,0,0-.63.64.63.63,0,0,0,.63.63.64.64,0,0,0,.64-.63A.64.64,0,0,0,24.17,13Z"/><path class="cls-1" d="M18.82,22.42A3.43,3.43,0,1,1,22.25,19,3.44,3.44,0,0,1,18.82,22.42Zm0-5.4a2,2,0,1,0,2,2A2,2,0,0,0,18.82,17Z"/><path class="cls-1" d="M18.82,30.17c-3.08,0-3.45,0-4.69-.07a8.17,8.17,0,0,1-2.7-.51,5.28,5.28,0,0,1-1.94-1.27,5.45,5.45,0,0,1-1.27-1.94,8.17,8.17,0,0,1-.51-2.7c-.06-1.24-.07-1.61-.07-4.69s0-3.45.07-4.69a8.17,8.17,0,0,1,.51-2.7A5.36,5.36,0,0,1,9.49,9.66a5.45,5.45,0,0,1,1.94-1.27,8.17,8.17,0,0,1,2.7-.51c1.24-.06,1.61-.07,4.69-.07s3.45,0,4.69.07a8.17,8.17,0,0,1,2.7.51,5.67,5.67,0,0,1,3.21,3.21,8.17,8.17,0,0,1,.51,2.7C30,15.56,30,15.93,30,19s0,3.44-.07,4.69h0a8.17,8.17,0,0,1-.51,2.7,5.45,5.45,0,0,1-1.27,1.94,5.28,5.28,0,0,1-1.94,1.27,8.17,8.17,0,0,1-2.7.51C22.27,30.16,21.9,30.17,18.82,30.17Zm0-20.89c-3.05,0-3.41,0-4.62.06A6.75,6.75,0,0,0,12,9.76a4.23,4.23,0,0,0-2.37,2.37,6.75,6.75,0,0,0-.42,2.24c-.05,1.21-.06,1.57-.06,4.62s0,3.41.06,4.62a6.75,6.75,0,0,0,.42,2.24A4.15,4.15,0,0,0,12,28.22a6.75,6.75,0,0,0,2.24.42c1.21.05,1.57.06,4.62.06s3.41,0,4.62-.06a6.75,6.75,0,0,0,2.24-.42,4.15,4.15,0,0,0,2.37-2.37,6.75,6.75,0,0,0,.42-2.24c.05-1.22.06-1.59.06-4.62s0-3.4-.06-4.62a6.75,6.75,0,0,0-.42-2.24,4.23,4.23,0,0,0-2.37-2.37,6.75,6.75,0,0,0-2.24-.42C22.23,9.29,21.87,9.28,18.82,9.28Z"/></svg>