<svg id="Layer_1" data-name="Layer 1" xmlns="http://www.w3.org/2000/svg" viewBox="0 0 28.35 28.35"><defs><style>.cls-1{fill:red;}</style></defs><title>viedo play stop</title><path class="cls-1" d="M14.11,22.8c-.73,0-7.17,0-9-.5a3.49,3.49,0,0,1-2.46-2.51,29.29,29.29,0,0,1-.45-5.61,29.57,29.57,0,0,1,.45-5.63A3.49,3.49,0,0,1,5.15,6c1.79-.49,8.23-.5,9-.5s7.17,0,9,.5a3.58,3.58,0,0,1,2.5,2.51,30.46,30.46,0,0,1,.5,5.63,30.3,30.3,0,0,1-.5,5.63,3.56,3.56,0,0,1-2.5,2.51C21.28,22.8,14.84,22.8,14.11,22.8ZM14.11,7a66.47,66.47,0,0,0-8.58.44A2.13,2.13,0,0,0,4.07,8.91a29.12,29.12,0,0,0-.42,5.27,28.86,28.86,0,0,0,.45,5.25,2.1,2.1,0,0,0,1.46,1.48,63.08,63.08,0,0,0,8.58.44,63.68,63.68,0,0,0,8.51-.44,2.13,2.13,0,0,0,1.47-1.48h0a29.76,29.76,0,0,0,.53-5.25,29.85,29.85,0,0,0-.44-5.25,2.13,2.13,0,0,0-1.56-1.48A64.14,64.14,0,0,0,14.11,7Z"/><path class="cls-1" d="M17.81,17.81H10.54V10.54h7.27ZM12,16.31h4.27V12H12Z"/></svg>