<svg id="Layer_1" data-name="Layer 1" xmlns="http://www.w3.org/2000/svg" viewBox="0 0 45 45"><defs><style>.cls-1{fill:red;}</style></defs><title>socialne tlacidla-03</title><path class="cls-1" d="M33.41,41.5H11.57A8.08,8.08,0,0,1,3.5,33.41h0V11.57A8.09,8.09,0,0,1,11.57,3.5H33.41a8.08,8.08,0,0,1,8.09,8.07h0V33.41a8.08,8.08,0,0,1-8.07,8.09ZM11.57,5A6.62,6.62,0,0,0,5,11.57V33.41a6.62,6.62,0,0,0,6.6,6.6H33.41a6.62,6.62,0,0,0,6.6-6.6V11.57A6.62,6.62,0,0,0,33.41,5Z"/><path class="cls-1" d="M22.46,31.13c-.73,0-7.17,0-9-.5A3.49,3.49,0,0,1,11,28.12a29.29,29.29,0,0,1-.45-5.61A28.68,28.68,0,0,1,11,16.88a3.49,3.49,0,0,1,2.5-2.51c1.79-.49,8.23-.5,9-.5s7.17,0,9,.5A3.56,3.56,0,0,1,34,16.88a30.38,30.38,0,0,1,.5,5.63,30.46,30.46,0,0,1-.5,5.63,3.56,3.56,0,0,1-2.5,2.51C29.63,31.13,23.19,31.13,22.46,31.13Zm0-15.81a64.64,64.64,0,0,0-8.58.44,2.11,2.11,0,0,0-1.46,1.48A29.08,29.08,0,0,0,12,22.51a29,29,0,0,0,.45,5.25,2.11,2.11,0,0,0,1.46,1.48,64.64,64.64,0,0,0,8.58.44A64.81,64.81,0,0,0,31,29.24a2.15,2.15,0,0,0,1.47-1.48h0A29.93,29.93,0,0,0,33,22.51a29.77,29.77,0,0,0-.44-5.25A2.13,2.13,0,0,0,31,15.78,63.18,63.18,0,0,0,22.46,15.32Z"/><path class="cls-1" d="M18.46,27.1V17.9l8.08,4.61Zm1.47-6.68v4.16l3.65-2.07Z"/></svg>