<svg id="Layer_1" data-name="Layer 1" xmlns="http://www.w3.org/2000/svg" viewBox="0 0 37.98 37.98"><defs><style>.cls-1{fill:red;}</style></defs><title>socialne tlacidla</title><path class="cls-1" d="M29.91,38H8.07A8.08,8.08,0,0,1,0,29.91V8.07A8.08,8.08,0,0,1,8.07,0H29.91A8.08,8.08,0,0,1,38,8.07V29.91A8.08,8.08,0,0,1,29.91,38ZM8.07,1.47a6.61,6.61,0,0,0-6.6,6.6V29.91a6.61,6.61,0,0,0,6.6,6.6H29.91a6.61,6.61,0,0,0,6.6-6.6V8.07a6.61,6.61,0,0,0-6.6-6.6Z"/><path class="cls-1" d="M19.16,27.63c-.73,0-7.17,0-9-.5a3.53,3.53,0,0,1-2.5-2.51A29.6,29.6,0,0,1,7.21,19a29.6,29.6,0,0,1,.49-5.63,3.54,3.54,0,0,1,2.5-2.51c1.79-.49,8.23-.5,9-.5s7.17,0,9,.5a3.54,3.54,0,0,1,2.5,2.52,29.73,29.73,0,0,1,.5,5.62,29.87,29.87,0,0,1-.5,5.63,3.53,3.53,0,0,1-2.5,2.51C26.33,27.62,19.89,27.63,19.16,27.63Zm0-15.81a63.31,63.31,0,0,0-8.58.44,2.1,2.1,0,0,0-1.46,1.48A29.14,29.14,0,0,0,8.67,19a29.14,29.14,0,0,0,.45,5.25,2.1,2.1,0,0,0,1.46,1.48,63.31,63.31,0,0,0,8.58.44,63.22,63.22,0,0,0,8.58-.44,2.11,2.11,0,0,0,1.47-1.48h0A29.81,29.81,0,0,0,29.65,19a29.81,29.81,0,0,0-.44-5.25,2.13,2.13,0,0,0-1.47-1.48A63.22,63.22,0,0,0,19.16,11.82Z"/><path class="cls-1" d="M16.13,23.59v-9.2L24.21,19Zm1.47-6.68v4.16L21.25,19Z"/></svg>